<?xml version="1.0" standalone="no"?>
<!DOCTYPE svg PUBLIC "-//W3C//DTD SVG 20010904//EN"
 "http://www.w3.org/TR/2001/REC-SVG-20010904/DTD/svg10.dtd">
<svg version="1.0" xmlns="http://www.w3.org/2000/svg"
  viewBox="0 0 512.000000 512.000000"
 preserveAspectRatio="xMidYMid meet">

<g transform="translate(0.000000,512.000000) scale(0.100000,-0.100000)"
fill="#000000" stroke="none">
<path d="M765 4033 c-47 -24 -86 -64 -106 -108 -17 -37 -19 -77 -19 -630 0
-620 3 -664 46 -795 43 -127 98 -214 209 -325 141 -141 281 -215 465 -244 43
-7 525 -11 1440 -11 l1374 0 -251 -253 c-181 -181 -258 -265 -272 -297 -81
-180 99 -360 279 -279 34 15 154 128 483 457 241 240 449 455 462 477 31 53
38 103 24 162 -11 45 -38 74 -478 516 -444 445 -469 468 -519 483 -68 20 -119
12 -179 -29 -76 -52 -108 -143 -83 -237 11 -40 43 -76 273 -308 l261 -262
-1394 2 -1395 3 -67 32 c-94 44 -160 109 -206 202 l-37 75 -5 615 c-5 607 -5
617 -27 656 -27 50 -58 80 -105 100 -48 19 -134 19 -173 -2z"/>
</g>
</svg>
